<?xml version="1.0" encoding="utf-8"?>
<!-- Generator: Adobe Illustrator 20.1.0, SVG Export Plug-In . SVG Version: 6.00 Build 0)  -->
<svg version="1.1" xmlns="http://www.w3.org/2000/svg" xmlns:xlink="http://www.w3.org/1999/xlink" x="0px" y="0px"
	 viewBox="0 0 100 100" style="enable-background:new 0 0 100 100;" xml:space="preserve">
<style type="text/css">
	.st0{fill:#494949;}
	.st1{fill:#FFFFFF;}
	.st2{fill:#949494;}
	.st3{fill:#F4F4F4;}
	.st4{fill:#C9C9C9;}
	.st5{fill:#FF988D;}
	.st6{fill:#36A5FF;}
	.st7{fill:#FFEB00;}
	.st8{fill:#381E1F;}
	.st9{fill:#324E8B;}
	.st10{fill:#1DA1F2;}
	.st11{fill:#2DBA0C;}
	.st12{fill:#FF7B31;}
	.st13{fill:#F6F6F6;}
	.st14{fill:#E6E7E8;}
	.st15{fill:#82432B;}
	.st16{fill:#2E9910;}
	.st17{fill:#64F244;}
	.st18{fill:#E0DDD4;}
	.st19{fill:#EEEDE9;}
	.st20{fill:#E9E7E0;}
	.st21{fill:#FF5148;}
	.st22{fill:none;}
	.st23{fill:#00CD00;}
	.st24{fill:url(#SVGID_1_);}
	.st25{fill:#E0E0E0;}
	.st26{fill:#59616A;}
	.st27{fill:#7E848B;}
</style>
<g id="레이어_2">
</g>
<g id="레이어_1">
	<g>
		<g>
			<path d="M85,10H15C9.5,10,5,14.5,5,20v70c0,5.5,4.5,10,10,10h70c5.5,0,10-4.5,10-10V20C95,14.5,90.5,10,85,10z"/>
			<path class="st1" d="M83,21.9c-3.1,0.1-12.3,0.7-21.6,5.3c-3.5,1.6-7.2,4.1-10.4,7.2c-5,5-12.7,14.1-18.9,21.6
				c-0.2,0.2-0.5,0.4-0.8,0.4l-12.7,0c-0.4,0-0.7,0.2-0.9,0.5l-6,9l10,2.7c0.4,0.1,0.7,0.4,0.8,0.8c0,0.2,0.1,0.4,0.2,0.6
				c0.1,0.3,0.1,0.6,0,0.8l-1.5,3.2c0,0-0.6,1.3,4.1,6.3c3.8,3.8,5.6,4.4,6.3,4.4c0.2,0,0.3,0,0.5-0.1l3.4-1.5
				c0.2-0.1,0.5-0.1,0.7-0.1c0.1,0,0.2,0.1,0.3,0.1c0.4,0.1,0.7,0.4,0.8,0.8l2.8,10.3l9-6c0.3-0.2,0.5-0.5,0.5-0.9l0-13.2
				c0-0.3,0.1-0.6,0.4-0.8c7.5-6.1,16.7-13.7,21.6-18.5c3.1-3.1,5.6-6.9,7.5-10.3c0,0,0-0.1,0-0.1c4.3-9.2,4.9-18.4,5-21.5
				C84.1,22.4,83.6,21.9,83,21.9z M62.1,50.2c-3.5,0-6.3-2.8-6.3-6.3c0-3.5,2.8-6.3,6.3-6.3c3.5,0,6.3,2.8,6.3,6.3
				C68.4,47.4,65.6,50.2,62.1,50.2z"/>
		</g>
		<rect class="st22" width="100" height="100"/>
	</g>
</g>
</svg>
