<?xml version="1.0" encoding="utf-8"?>
<!-- Generator: Adobe Illustrator 20.1.0, SVG Export Plug-In . SVG Version: 6.00 Build 0)  -->
<svg version="1.1" xmlns="http://www.w3.org/2000/svg" xmlns:xlink="http://www.w3.org/1999/xlink" x="0px" y="0px"
	 viewBox="0 0 100 100" style="enable-background:new 0 0 100 100;" xml:space="preserve">
<style type="text/css">
	.st0{fill:#494949;}
	.st1{fill:#FFFFFF;}
	.st2{fill:#949494;}
	.st3{fill:#F4F4F4;}
	.st4{fill:#C9C9C9;}
	.st5{fill:#FF988D;}
	.st6{fill:#36A5FF;}
	.st7{fill:#FFEB00;}
	.st8{fill:#381E1F;}
	.st9{fill:#324E8B;}
	.st10{fill:#1DA1F2;}
	.st11{fill:#2DBA0C;}
	.st12{fill:#FF7B31;}
	.st13{fill:#F6F6F6;}
	.st14{fill:#E6E7E8;}
	.st15{fill:#82432B;}
	.st16{fill:#2E9910;}
	.st17{fill:#64F244;}
	.st18{fill:#E0DDD4;}
	.st19{fill:#EEEDE9;}
	.st20{fill:#E9E7E0;}
	.st21{fill:#FF5148;}
	.st22{fill:none;}
	.st23{fill:#00CD00;}
	.st24{fill:url(#SVGID_1_);}
	.st25{fill:#E0E0E0;}
	.st26{fill:#59616A;}
	.st27{fill:#7E848B;}
</style>
<g id="레이어_2">
</g>
<g id="레이어_1">
	<g>
		<g>
			<path d="M85,10H15C9.5,10,5,14.5,5,20v70c0,5.5,4.5,10,10,10h70c5.5,0,10-4.5,10-10V20C95,14.5,90.5,10,85,10z"/>
			<path class="st1" d="M75.6,68.1H24.4V37.5h51.1V68.1z M77.6,29.4H22.4c-3.4,0-6.1,2.8-6.1,6.1v36.7c0,3.4,2.8,6.1,6.1,6.1h21.4
				l-6.1,9.2v3.1h24.5v-3.1l-6.1-9.2h21.4c3.4,0,6.1-2.8,6.1-6.1V35.5C83.7,32.1,80.9,29.4,77.6,29.4z"/>
		</g>
		<rect class="st22" width="100" height="100"/>
	</g>
</g>
</svg>
